<svg xmlns="http://www.w3.org/2000/svg" viewBox="0 0 23 23">
  <defs>
    <style>
      .cls-1 {
        fill: #dd4b39;
      }

      .cls-2 {
        fill: #fff;
      }
    </style>
  </defs>
  <g id="Group_25" data-name="Group 25" transform="translate(-5730 -2420)">
    <rect id="Rectangle_27" data-name="Rectangle 27" class="cls-1" width="23" height="23" rx="4" transform="translate(5730 2420)"/>
    <path id="Path_21" data-name="Path 21" class="cls-2" d="M16.7,8a8.7,8.7,0,1,0,5.159,15.7.42.42,0,0,0,.073-.6l-.178-.217a.42.42,0,0,0-.572-.075A7.576,7.576,0,1,1,16.7,9.122c4.154,0,7.575,2.807,7.575,7.014,0,2.556-1.852,3.8-4.071,3.8-.692,0-.831-.379-.684-1.188l1.125-5.754a.421.421,0,0,0-.413-.5h-.436a.421.421,0,0,0-.413.341,5.927,5.927,0,0,0-.135.9,2.641,2.641,0,0,0-2.573-1.509c-2.386,0-4.671,2.208-4.671,5.507,0,2.16,1.189,3.449,3.182,3.449a3.82,3.82,0,0,0,3.038-1.648c-.042.974.612,1.48,1.612,1.48C23.61,21.01,25.4,19,25.4,16.137,25.4,11.36,21.533,8,16.7,8Zm-1.33,12.016c-1.286,0-2.054-.881-2.054-2.356,0-2.619,1.78-4.263,3.41-4.263,1.363,0,2.038.975,2.038,2.305C18.761,17.742,17.415,20.016,15.368,20.016Z" transform="translate(5725 2415)"/>
  </g>
</svg>
