<svg xmlns="http://www.w3.org/2000/svg" xmlns:xlink="http://www.w3.org/1999/xlink" viewBox="0 0 23 23">
  <defs>
    <style>
      .cls-1 {
        fill: url(#linear-gradient);
      }

      .cls-2 {
        fill: #fff;
      }
    </style>
    <linearGradient id="linear-gradient" x1="1" x2="0" y2="1" gradientUnits="objectBoundingBox">
      <stop offset="0" stop-color="#e1306c"/>
      <stop offset="1" stop-color="#c13584"/>
    </linearGradient>
  </defs>
  <g id="Group_26" data-name="Group 26" transform="translate(-5730 -2451)">
    <rect id="Rectangle_30" data-name="Rectangle 30" class="cls-1" width="23" height="23" rx="4" transform="translate(5730 2451)"/>
    <path id="Path_28" data-name="Path 28" class="cls-2" d="M8.627,36.064a4.461,4.461,0,1,0,4.46,4.461A4.454,4.454,0,0,0,8.627,36.064Zm0,7.361a2.9,2.9,0,1,1,2.9-2.9,2.905,2.905,0,0,1-2.9,2.9Zm5.683-7.544a1.04,1.04,0,1,1-1.04-1.041A1.038,1.038,0,0,1,14.31,35.881Zm2.954,1.056a5.15,5.15,0,0,0-1.405-3.646,5.181,5.181,0,0,0-3.645-1.406c-1.436-.082-5.741-.082-7.177,0a5.174,5.174,0,0,0-3.645,1.4A5.167,5.167,0,0,0-.014,36.934c-.082,1.437-.082,5.742,0,7.179a5.15,5.15,0,0,0,1.405,3.646,5.188,5.188,0,0,0,3.645,1.406c1.436.082,5.741.082,7.177,0a5.148,5.148,0,0,0,3.645-1.406,5.184,5.184,0,0,0,1.405-3.646C17.345,42.676,17.345,38.374,17.264,36.937Zm-1.855,8.717a2.936,2.936,0,0,1-1.654,1.654c-1.145.454-3.862.349-5.128.349s-3.987.1-5.128-.349a2.936,2.936,0,0,1-1.654-1.654c-.454-1.145-.349-3.863-.349-5.129s-.1-3.987.349-5.129A2.936,2.936,0,0,1,3.5,33.742c1.145-.454,3.862-.349,5.128-.349s3.987-.1,5.128.349A2.936,2.936,0,0,1,15.408,35.4c.454,1.145.349,3.863.349,5.129S15.863,44.512,15.408,45.654Z" transform="translate(5733.075 2422.175)"/>
  </g>
</svg>
