<svg xmlns="http://www.w3.org/2000/svg" viewBox="0 0 36.069 36.069">
  <defs>
    <style>
      .cls-1 {
        fill: #141414;
      }
    </style>
  </defs>
  <path id="Path_5" data-name="Path 5" class="cls-1" d="M44.069,26.035A18.035,18.035,0,1,0,26.035,44.069,18.031,18.031,0,0,0,44.069,26.035ZM26.035,41.742A15.707,15.707,0,1,1,41.742,26.035,15.707,15.707,0,0,1,26.035,41.742Zm-.909-6.727-8.37-8.363a.873.873,0,0,1,0-1.236l8.37-8.363a.873.873,0,0,1,1.236,0l.5.5a.869.869,0,0,1-.015,1.244l-6.218,6H34.47a.875.875,0,0,1,.873.873V26.4a.875.875,0,0,1-.873.873H20.631l6.225,6a.876.876,0,0,1,.015,1.244l-.5.5A.882.882,0,0,1,25.126,35.015Z" transform="translate(44.069 44.069) rotate(180)"/>
</svg>
